<svg width="37" height="27" viewBox="0 0 37 27" fill="none" xmlns="http://www.w3.org/2000/svg">
<path d="M23.2909 0C16.0364 0 12.2182 4.00909 11.2636 9.73636H8.01818V0.572727H0V26.3455H8.01818V16.4182H11.2636C12.2182 22.5273 16.0364 26.7273 23.4818 26.7273C32.2636 26.7273 36.2727 21 36.2727 13.3636C36.0818 5.72727 32.0727 0 23.2909 0ZM23.2909 20.4273C19.6636 20.4273 18.5182 17.5636 18.5182 13.5545C18.5182 9.54545 19.6636 6.68182 23.2909 6.68182C26.9182 6.68182 28.0636 9.54545 28.0636 13.5545C28.0636 17.3727 26.9182 20.2364 23.2909 20.4273Z" fill="#0078DC"/>
</svg>
